<?xml version="1.0" encoding="UTF-8"?>
<svg width="100%" height="100%" viewBox="0 0 24 24" fill="none" xmlns="http://www.w3.org/2000/svg">
  <path d="M12 2C15.31 2 18 4.69 18 8C18 11.31 12 22 12 22C12 22 6 13.31 6 8C6 4.69 8.69 2 12 2Z" fill="currentColor"/>
  <path d="M13 8C13 8.55 12.55 9 12 9C11.45 9 11 8.55 11 8C11 7.45 11.45 7 12 7C12.55 7 13 7.45 13 8Z" fill="white" fill-opacity="0.7"/>
  <path d="M12 5C10.34 5 9 6.34 9 8C9 9.66 10.34 11 12 11C13.66 11 15 9.66 15 8C15 6.34 13.66 5 12 5Z" fill="none" stroke="white" stroke-width="0.5" stroke-linecap="round" stroke-linejoin="round"/>
</svg>
