<?xml version="1.0" encoding="UTF-8"?>
<svg width="100%" height="100%" viewBox="0 0 200 300" xmlns="http://www.w3.org/2000/svg">
  <defs>
    <linearGradient id="balloonGradient" x1="0%" y1="0%" x2="100%" y2="100%">
      <stop offset="0%" stop-color="#FF6B6B" />
      <stop offset="25%" stop-color="#FF9E7D" />
      <stop offset="50%" stop-color="#FFD166" />
      <stop offset="75%" stop-color="#83C5BE" />
      <stop offset="100%" stop-color="#6A4C93" />
    </linearGradient>
    <filter id="dropshadow" x="-20%" y="-20%" width="140%" height="140%">
      <feGaussianBlur in="SourceAlpha" stdDeviation="3" />
      <feOffset dx="2" dy="4" result="offsetblur" />
      <feComponentTransfer>
        <feFuncA type="linear" slope="0.2" />
      </feComponentTransfer>
      <feMerge> 
        <feMergeNode />
        <feMergeNode in="SourceGraphic" />
      </feMerge>
    </filter>
  </defs>
  
  <!-- Balloon -->
  <path 
    d="M100 50C60 50 30 80 30 120C30 160 60 200 100 220C140 200 170 160 170 120C170 80 140 50 100 50Z" 
    fill="url(#balloonGradient)" 
    filter="url(#dropshadow)"
    stroke="#fff"
    stroke-width="2"
  />
  
  <!-- Balloon highlight -->
  <ellipse cx="80" cy="100" rx="20" ry="10" fill="white" fill-opacity="0.3" />
  
  <!-- Balloon string -->
  <path 
    d="M100 220L100 270" 
    stroke="#ccc" 
    stroke-width="2" 
    stroke-linecap="round"
    stroke-dasharray="5,5"
  />
  
  <!-- Decorative dots -->
  <circle cx="80" cy="150" r="3" fill="white" />
  <circle cx="120" cy="150" r="3" fill="white" />
  <circle cx="100" cy="180" r="3" fill="white" />
  
  <!-- Small confetti -->
  <g fill="#FF6B6B" transform="translate(50, 250)">
    <rect x="0" y="0" width="8" height="8" rx="1" transform="rotate(45)" />
    <rect x="30" y="10" width="8" height="8" rx="1" transform="rotate(15)" fill="#4ECDC4" />
    <rect x="60" y="-10" width="8" height="8" rx="4" transform="rotate(-15)" fill="#FFD166" />
    <rect x="90" y="5" width="8" height="8" rx="1" transform="rotate(30)" fill="#A78BFA" />
  </g>
</svg>
